<svg width="64" height="64" xmlns="http://www.w3.org/2000/svg">

 <g>
  <title>background</title>
  <rect fill="none" id="canvas_background" height="402" width="582" y="-1" x="-1"/>
 </g>
 <g>
  <title>Layer 1</title>
  <path id="svg_3" fill="#95C675" d="m51.677719,12.821562c-0.221,-0.021 -4.94,-0.371 -4.94,-0.371s-3.28,-3.271 -3.639,-3.631c-0.36,-0.362 -1.063,-0.254 -1.337,-0.171c-0.039,0.011 -0.715,0.222 -1.834,0.567c-1.096,-3.167 -3.027,-6.077 -6.426,-6.077c-0.094,0 -0.191,0.004 -0.289,0.01c-0.966,-1.283 -2.164,-1.844 -3.199,-1.844c-7.919,0 -11.703,9.951 -12.889,15.008c-3.078,0.956 -5.266,1.638 -5.542,1.728c-1.721,0.542 -1.774,0.596 -1.997,2.222c-0.172,1.231 -4.667,36.164 -4.667,36.164l35.022,6.594l18.978,-4.127c0,0 -6.661,-45.261 -6.703,-45.572c-0.042,-0.31 -0.314,-0.482 -0.538,-0.5zm-18.725,-1.779c0,0.119 -0.002,0.231 -0.002,0.344c-1.928,0.601 -4.02,1.251 -6.121,1.906c1.179,-4.57 3.387,-6.78 5.32,-7.613c0.485,1.226 0.803,2.988 0.803,5.363zm-3.158,-7.602c0.346,0 0.688,0.116 1.018,0.345c-2.539,1.199 -5.258,4.224 -6.408,10.261c-1.679,0.522 -3.319,1.034 -4.838,1.506c1.346,-4.607 4.54,-12.112 10.228,-12.112zm1.365,26.912c0,0 -2.05,-1.099 -4.561,-1.099c-3.686,0 -3.872,2.324 -3.872,2.908c0,3.195 8.287,4.42 8.287,11.903c0,5.888 -3.714,9.678 -8.726,9.678c-6.012,0 -9.088,-3.761 -9.088,-3.761l1.609,-5.345c0,0 3.16,2.729 5.83,2.729c1.74,0 2.449,-1.38 2.449,-2.387c0,-4.168 -6.799,-4.354 -6.799,-11.203c0,-5.761 4.116,-11.341 12.428,-11.341c3.199,0 4.783,0.923 4.783,0.923l-2.34,6.995zm3.869,-19.612c0,-0.211 0.002,-0.417 0.002,-0.644c0,-1.966 -0.273,-3.551 -0.709,-4.807c1.752,0.219 2.919,2.223 3.67,4.528c-0.879,0.276 -1.879,0.586 -2.963,0.923z"/>
  <path id="svg_5" fill="#79B259" d="m51.92156,12.57772c-0.221,-0.021 -4.94,-0.371 -4.94,-0.371s-3.28,-3.271 -3.639,-3.631c-0.36,-0.362 -1.063,-0.254 -1.337,-0.171c-0.039,0.011 -0.715,0.222 -1.834,0.567c-1.096,-3.167 -3.027,-6.077 -6.426,-6.077c-0.094,0 -0.191,0.004 -0.289,0.01c-0.966,-1.283 -2.164,-1.844 -3.199,-1.844c-7.919,0 -9.873,9.951 -11.059,15.008c-3.078,0.956 -5.44,6.219 -5.719,6.307c-1.719,0.542 -1.772,0.596 -1.996,2.223c-0.173,1.23 -6.321,31.584 -6.321,31.584l35.022,6.594l18.978,-4.127c0,0 -6.661,-45.261 -6.703,-45.572c-0.042,-0.31 -0.314,-0.482 -0.538,-0.5zm-18.725,-1.779c0,0.119 -0.002,0.231 -0.002,0.344c-1.928,0.601 -4.02,1.251 -6.121,1.906c1.179,-4.57 3.387,-6.78 5.32,-7.613c0.485,1.226 0.803,2.988 0.803,5.363zm-3.158,-7.602c0.346,0 0.688,0.116 1.018,0.345c-2.539,1.199 -5.258,4.224 -6.408,10.261c-1.679,0.522 -3.319,1.034 -4.838,1.506c1.346,-4.607 4.54,-12.112 10.228,-12.112zm1.365,26.912c0,0 -2.05,-1.099 -4.561,-1.099c-3.686,0 -3.872,2.324 -3.872,2.908c0,3.195 8.287,4.42 8.287,11.903c0,5.888 -3.714,9.678 -8.726,9.678c-6.012,0 -9.088,-3.761 -9.088,-3.761l1.609,-5.345c0,0 3.16,2.729 5.83,2.729c1.74,0 2.449,-1.38 2.449,-2.387c0,-4.168 -6.799,-4.354 -6.799,-11.203c0,-5.761 4.116,-11.341 12.428,-11.341c3.199,0 4.783,0.923 4.783,0.923l-2.34,6.995zm3.869,-19.612c0,-0.211 0.002,-0.417 0.002,-0.644c0,-1.966 -0.273,-3.551 -0.709,-4.807c1.752,0.219 2.919,2.223 3.67,4.528c-0.879,0.276 -1.879,0.586 -2.963,0.923z"/>
  <path id="svg_6" fill="#bf5f00" d="m40.022,62.857l18.978,-4.126c0,0 -6.661,-45.261 -6.703,-45.572c-0.042,-0.311 -0.313,-0.482 -0.538,-0.5c-0.221,-0.021 -4.94,-0.371 -4.94,-0.371s-3.28,-3.271 -3.639,-3.631c-0.192,-0.194 -0.479,-0.249 -0.75,-0.251c-0.72,1.22 -0.571,3.537 -0.571,3.537l-2.232,50.839l0.395,0.075z"/>
  <path id="svg_7" fill="#bf5f00" d="m33.583,2.977c-0.094,0 -0.191,0.004 -0.289,0.01c-0.966,-1.283 -2.164,-1.844 -3.199,-1.844c-7.887,0 -11.674,9.873 -12.875,14.947l2.447,-0.759c1.354,-4.609 4.545,-12.053 10.209,-12.053c0.346,0 0.688,0.116 1.018,0.345c-2.532,1.195 -5.244,4.209 -6.398,10.213l2.43,-0.75c1.182,-4.541 3.381,-6.739 5.307,-7.569c0.484,1.227 0.803,2.988 0.803,5.363c0,0.108 0,0.211 -0.002,0.314l2.078,-0.643c0,-0.2 0.002,-0.4 0.002,-0.617c0,-1.966 -0.273,-3.551 -0.709,-4.807c1.746,0.218 2.912,2.213 3.662,4.508l1.938,-0.601c-1.099,-3.158 -3.029,-6.057 -6.422,-6.057z"/>
  <path id="svg_8" fill="#bf5f00" d="m47.773562,12.348c-0.474,-0.037 -0.793,-0.06 -0.793,-0.06s-3.28,-3.271 -3.639,-3.631c-0.192,-0.194 -0.479,-0.249 -0.75,-0.251c-0.72,1.22 -0.571,3.537 -0.571,3.537l-2.232,50.839l0.396,0.075l10.098,-2.196l-2.509,-48.313z"/>
 </g>
</svg>